<svg width="46" height="46" viewBox="0 0 46 46" fill="none" xmlns="http://www.w3.org/2000/svg">
<circle cx="23" cy="23" r="23" fill="white"/>
<path d="M27.4447 22.3757L20.3245 15.2556C20.1598 15.0908 19.94 15 19.7056 15C19.4712 15 19.2513 15.0908 19.0866 15.2556L18.5623 15.7798C18.2211 16.1214 18.2211 16.6766 18.5623 17.0177L24.5413 22.9967L18.5557 28.9823C18.391 29.1471 18.3 29.3668 18.3 29.6011C18.3 29.8357 18.391 30.0554 18.5557 30.2203L19.08 30.7444C19.2448 30.9092 19.4645 31 19.6989 31C19.9333 31 20.1532 30.9092 20.3179 30.7444L27.4447 23.6178C27.6098 23.4525 27.7004 23.2317 27.6999 22.9971C27.7004 22.7615 27.6098 22.5409 27.4447 22.3757Z" fill="#F8C654"/>
</svg>
