<svg width="64" height="64" xmlns="http://www.w3.org/2000/svg">
  <path stroke-linecap="null" stroke-linejoin="null" stroke-dasharray="null" stroke-width="null" stroke="null" fill="#f9c649" d="M0 0h64v64H0z"/>
  <g fill="#fff" fill-rule="nonzero" stroke="null">
    <path d="M43.76 14.16L32.3 9.14a.76.76 0 00-.61 0l-11.47 5.02a.76.76 0 00-.45.7v12c0 2.69 1.3 5.22 3.48 6.8l7.92 5.71a1.4 1.4 0 001.64 0l7.92-5.7a8.42 8.42 0 003.49-6.82v-12c0-.3-.18-.57-.46-.7zm-1.07 12.7c0 2.2-1.06 4.27-2.85 5.56l-7.85 5.66-7.85-5.66a6.88 6.88 0 01-2.85-5.57v-11.5L32 10.68l10.7 4.69v11.5z"/>
    <path d="M31.69 12.48l-8.4 3.68a.76.76 0 00-.47.7v10c0 1.7.83 3.32 2.22 4.32l6.5 4.7c.27.19.63.19.9 0l6.5-4.7a5.35 5.35 0 002.22-4.33v-10c0-.3-.18-.57-.46-.7l-8.4-3.67a.76.76 0 00-.61 0zm7.94 4.88v9.5c0 1.22-.59 2.37-1.58 3.08L32 34.31l-6.06-4.37a3.82 3.82 0 01-1.58-3.09v-9.5L32 14.02l7.64 3.35zM15.4 34.45l-1.65-3.87a2.44 2.44 0 00-4.46 1.97l3 6.59c.4.89.96 1.7 1.65 2.4l4.71 4.7c-.26.28-.41.66-.41 1.04v6.12c0 .84.68 1.52 1.53 1.52h8.4c.85 0 1.53-.68 1.53-1.52v-6.12c0-.84-.68-1.53-1.53-1.53v-1.42a8 8 0 00-1.67-5 5.5 5.5 0 00-2.55-1.86 15.12 15.12 0 01-4.38-2.8 3.51 3.51 0 00-4.17-.23zM28.17 53.4h-8.4v-6.12h8.4v6.12zM25.3 40.28a6.48 6.48 0 011.34 4.05v1.42h-6.32l-5.3-5.3a6.6 6.6 0 01-1.35-1.94l-2.99-6.6a.9.9 0 111.66-.72l1.71 3.98a9.02 9.02 0 001.93 2.85l3.49 3.49a.76.76 0 101.08-1.08l-3.5-3.5a7.54 7.54 0 01-.93-1.14 1.99 1.99 0 012.47.04 16.3 16.3 0 004.88 3.09c.73.27 1.37.74 1.83 1.36z"/>
    <path d="M25.88 49.57h-.77a.76.76 0 000 1.53h.77a.76.76 0 000-1.53zM51.7 39.14l3-6.59a2.44 2.44 0 10-4.46-1.97l-1.65 3.85a3.52 3.52 0 00-4.18.23 15.12 15.12 0 01-4.38 2.8 5.5 5.5 0 00-2.54 1.86 8 8 0 00-1.68 5.01v1.42c-.84 0-1.53.69-1.53 1.53v6.12c0 .84.69 1.52 1.53 1.52h8.4c.85 0 1.54-.68 1.54-1.52v-6.12c0-.38-.15-.76-.42-1.04l4.71-4.7c.7-.7 1.26-1.51 1.66-2.4zM44.22 53.4h-8.4v-6.12h8.4v6.12zm-.56-7.65h-6.32v-1.42a6.48 6.48 0 011.34-4.05c.47-.62 1.1-1.1 1.83-1.36 1.8-.73 3.45-1.78 4.88-3.09.71-.6 1.74-.61 2.48-.05-.28.42-.6.8-.95 1.16l-3.49 3.49a.76.76 0 001.08 1.08l3.5-3.5a9.02 9.02 0 001.92-2.84l1.71-3.98a.9.9 0 111.66.73l-3 6.59a6.6 6.6 0 01-1.34 1.94l-5.3 5.3z"/>
    <path d="M38.87 49.57h-.77a.76.76 0 000 1.53h.77a.76.76 0 000-1.53zM27.87 25.28a.76.76 0 10-.92 1.22L30 28.79a.76.76 0 001.09-.19l6.11-9.17a.76.76 0 00-1.27-.84l-5.66 8.5-2.41-1.81z"/>
  </g>
</svg>