<svg width="64" height="64" xmlns="http://www.w3.org/2000/svg">
  <path stroke-linecap="null" stroke-linejoin="null" stroke-dasharray="null" stroke-width="5" stroke="null" fill="#f9c649" d="M0 0h64v64H0z"/>
  <g fill="#fff" stroke="null">
    <path d="M50.216 8.566H13.784a2.75 2.75 0 00-2.746 2.746v41.376a2.75 2.75 0 002.746 2.746h36.432a2.75 2.75 0 002.746-2.746V11.312a2.75 2.75 0 00-2.746-2.746zm.916 44.122c0 .504-.411.915-.916.915H13.784a.916.916 0 01-.916-.915V11.312c0-.504.411-.915.916-.915h36.432c.505 0 .916.41.916.915v41.376z"/>
    <path d="M47.653 12.96H16.347a.915.915 0 00-.915.915v36.25c0 .505.41.915.915.915h3.196a.915.915 0 000-1.83h-2.28V14.79h29.475v34.42H26.866a.915.915 0 000 1.83h20.787c.506 0 .915-.41.915-.915v-36.25a.915.915 0 00-.915-.915h0z"/>
    <path d="M40.452 41.075a.915.915 0 00-1.284.16l-1.952 2.509-.07-.102a1.475 1.475 0 00-1.095-.787 1.431 1.431 0 00-1.29.504l-.904 1.064-.328-.386a1.566 1.566 0 00-1.16-.562 1.571 1.571 0 00-1.175.516l-.987 1.08a.915.915 0 001.351 1.235l.776-.848.28.33c.318.375.77.59 1.243.59s.924-.216 1.242-.59l.72-.847.6.87a.915.915 0 001.475.042l2.718-3.493a.915.915 0 00-.16-1.285h0zM23.205 38.774h13.929a.915.915 0 000-1.83h-13.93a.915.915 0 000 1.83zM41.71 37.858a.921.921 0 00-.267-.647.926.926 0 00-.648-.268c-.24 0-.477.098-.647.268s-.268.407-.268.647.098.477.268.648c.17.17.406.268.647.268a.924.924 0 00.648-.268.921.921 0 00.267-.648zM40.795 32.915h-17.59a.915.915 0 000 1.831h17.59a.915.915 0 000-1.83zM23.205 30.718h3.123a.915.915 0 100-1.83h-3.123a.915.915 0 100 1.83zM30.398 24.845v-1.999h3.204v1.999c0 .505.41.915.915.915h7.735a.916.916 0 00.648-1.563l-1.367-1.366 1.367-1.367a.915.915 0 00-.648-1.562h-4.21v-1.999a.915.915 0 00-.916-.915H26.874a.915.915 0 00-.916.915v1.999h-4.21a.916.916 0 00-.648 1.562l1.367 1.367-1.367 1.366a.915.915 0 00.648 1.563h7.735c.505 0 .915-.41.915-.915h0zm9.644-3.113l-.45.452a.916.916 0 000 1.294l.45.451h-4.61v-1.083h1.694c.506 0 .916-.41.916-.915v-.199h2zM27.79 18.818h8.422v2.197h-8.422v-2.197zm-3.831 5.111l.45-.45a.916.916 0 000-1.296l-.45-.45h2v.198c0 .505.41.915.916.915h1.693v1.083h-4.61 0zM23.205 49.21a.918.918 0 00-.647 1.562.92.92 0 00.647.268c.24 0 .477-.098.647-.268.17-.17.268-.407.268-.647s-.098-.477-.268-.648a.924.924 0 00-.647-.268z"/>
  </g>
</svg>