<svg width="64" height="64" xmlns="http://www.w3.org/2000/svg">
  <path stroke-width="5" stroke="null" fill="#f9c649" d="M0 0h64v64H0z"/>
  <path stroke-width="5" stroke="null" fill="#f9c649" d="M20.387 37.581h25.362v5.339H20.387zM28.262 32.642h11.747v1.468H28.262z"/>
  <g stroke="null" fill="#fff">
    <path d="M50.508 12.953h-4.283v-1.258C46.225 10.21 45.016 9 43.53 9s-2.695 1.21-2.695 2.695v1.258H25.74v-1.258C25.74 10.21 24.53 9 23.046 9s-2.696 1.21-2.696 2.695v1.291a.897.897 0 00-.24-.033h-3.579a4.497 4.497 0 00-4.492 4.492V32.75a.898.898 0 001.797 0V22.207h32.39a.898.898 0 000-1.797h-32.39v-2.965a2.698 2.698 0 012.695-2.695h3.58a.9.9 0 00.24-.033v1.156c0 1.486 1.208 2.695 2.695 2.695s2.695-1.209 2.695-2.695V14.75h15.094v1.123c0 1.486 1.209 2.695 2.695 2.695s2.695-1.209 2.695-2.695V14.75h4.283a2.698 2.698 0 012.695 2.695v34.14c0 .892-.726 1.618-1.618 1.618s-1.617-.726-1.617-1.618v-2.324a.898.898 0 00-.899-.898H38.62a.898.898 0 000 1.797h9.552v1.425c0 .585.148 1.136.408 1.618H12.414a1.619 1.619 0 01-1.617-1.617V50.16h20.11a.898.898 0 000-1.797h-8.978a7.351 7.351 0 002.567-5.582c0-4.062-3.305-7.367-7.367-7.367-4.062 0-7.367 3.305-7.367 7.367 0 2.23.997 4.23 2.567 5.582h-2.43A.898.898 0 009 49.26v2.325A3.418 3.418 0 0012.414 55h39.171A3.418 3.418 0 0055 51.585v-34.14a4.497 4.497 0 00-4.492-4.492h0zm-26.564 2.92a.9.9 0 01-1.797 0v-4.178a.9.9 0 011.797 0v4.178zm20.484 0a.9.9 0 01-1.797 0v-4.178a.9.9 0 011.797 0v4.178zm-32.87 26.908c0-3.071 2.5-5.57 5.571-5.57s5.57 2.499 5.57 5.57-2.499 5.57-5.57 5.57-5.57-2.498-5.57-5.57z"/>
    <path d="M51.075 20.673a.905.905 0 00-.635-.263.905.905 0 00-.636.263c-.167.168-.263.4-.263.636s.096.468.263.635a.905.905 0 00.636.263.905.905 0 00.635-.263c.167-.167.263-.4.263-.635s-.096-.468-.263-.636zM35.832 48.626a.904.904 0 00-1.27 0 .907.907 0 00-.264.635c0 .237.096.468.263.636a.904.904 0 001.27 0 .909.909 0 00.264-.636.907.907 0 00-.263-.635zM29.327 36.313c-1.883 0-3.414 1.531-3.414 3.414s1.531 3.414 3.414 3.414 3.414-1.532 3.414-3.414-1.532-3.414-3.414-3.414zm0 5.03c-.892 0-1.617-.725-1.617-1.616s.725-1.618 1.617-1.618 1.617.726 1.617 1.618-.726 1.617-1.617 1.617zM37.712 36.313c-1.882 0-3.414 1.531-3.414 3.414s1.532 3.414 3.414 3.414 3.414-1.532 3.414-3.414-1.531-3.414-3.414-3.414zm0 5.03c-.892 0-1.617-.725-1.617-1.616s.725-1.618 1.617-1.618 1.617.726 1.617 1.618-.725 1.617-1.617 1.617zM46.098 36.313c-1.883 0-3.415 1.531-3.415 3.414s1.532 3.414 3.415 3.414c1.882 0 3.414-1.532 3.414-3.414s-1.532-3.414-3.414-3.414zm0 5.03c-.892 0-1.618-.725-1.618-1.616s.726-1.618 1.618-1.618 1.617.726 1.617 1.618-.726 1.617-1.617 1.617zM20.941 26.969c-1.882 0-3.414 1.531-3.414 3.414s1.532 3.414 3.414 3.414 3.414-1.532 3.414-3.414-1.531-3.414-3.414-3.414zm0 5.031c-.891 0-1.617-.725-1.617-1.617s.726-1.617 1.617-1.617c.892 0 1.618.725 1.618 1.617S21.833 32 20.94 32zM37.712 26.969c-1.882 0-3.414 1.531-3.414 3.414s1.532 3.414 3.414 3.414 3.414-1.532 3.414-3.414-1.531-3.414-3.414-3.414zm0 5.031c-.892 0-1.617-.725-1.617-1.617s.725-1.617 1.617-1.617 1.617.725 1.617 1.617S38.604 32 37.712 32zM46.098 26.969c-1.883 0-3.415 1.531-3.415 3.414s1.532 3.414 3.415 3.414c1.882 0 3.414-1.532 3.414-3.414s-1.532-3.414-3.414-3.414zm0 5.031c-.892 0-1.618-.725-1.618-1.617s.726-1.617 1.618-1.617 1.617.725 1.617 1.617S46.989 32 46.098 32zM29.327 26.969c-1.883 0-3.414 1.531-3.414 3.414s1.531 3.414 3.414 3.414 3.414-1.532 3.414-3.414-1.532-3.414-3.414-3.414zm0 5.031c-.892 0-1.617-.725-1.617-1.617s.725-1.617 1.617-1.617 1.617.725 1.617 1.617S30.218 32 29.327 32zM20.33 40.592a.899.899 0 00-1.271 0l-2.926 2.926-1-1a.899.899 0 00-1.27 1.27l1.635 1.635a.899.899 0 001.27 0l3.562-3.56c.35-.352.35-.92 0-1.271z"/>
  </g>
</svg>