<svg width="64" height="64" xmlns="http://www.w3.org/2000/svg">
  <path fill="#f9c649" d="M0 0h64v64H0z"/>
  <path fill="#fff" d="M53.708 39.409c.669-2.2.996-4.269.996-6.302 0-5.896-2.405-11.468-6.77-15.688-4.256-4.113-9.962-6.484-15.934-6.484-12.235 0-22.704 9.9-22.704 22.172 0 2.033.327 4.102.996 6.303a2.674 2.674 0 00-.927 2.78l2.296 8.565a2.66 2.66 0 003.259 1.883l2.717-.729a2.666 2.666 0 002.882 1.065l3.426-.919a2.663 2.663 0 001.882-3.258l-3.214-11.993a2.664 2.664 0 00-3.259-1.881l-3.426.918a2.644 2.644 0 00-.96.482 15.646 15.646 0 01-.33-2.453 2.609 2.609 0 001.824-2.237c.732-7.5 7.702-13.602 15.538-13.602s14.806 6.102 15.538 13.602a2.608 2.608 0 001.824 2.237 15.648 15.648 0 01-.33 2.453 2.647 2.647 0 00-.96-.482l-3.426-.918a2.664 2.664 0 00-3.26 1.881l-3.212 11.993a2.663 2.663 0 001.88 3.258l3.428.919a2.666 2.666 0 002.88-1.065l2.719.729a2.66 2.66 0 003.257-1.882l2.297-8.567a2.676 2.676 0 00-.927-2.78zm-37.32-1.855l3.425-.918a.888.888 0 011.087.627l3.213 11.993a.888.888 0 01-.627 1.086l-.857.23-1.606-5.997a.887.887 0 10-1.713.459l1.606 5.997-.856.23a.889.889 0 01-1.087-.628L15.76 38.64a.888.888 0 01.627-1.086zm.643 12.681l-2.57.69a.887.887 0 01-1.086-.628l-2.296-8.566a.89.89 0 01.627-1.086l2.534-.68c.258.646-.214-.834 2.79 10.27zm-5.938-16.241h1.776c.077 1.413.338 2.851.78 4.293l-1.705.458c-.492-1.655-.772-3.222-.85-4.751zm38.21-2.534C48.464 22.868 40.665 16.257 32 16.257c-8.67 0-16.465 6.614-17.303 15.203-.042.427-.424.76-.87.76h-2.735C11.587 21.556 20.959 12.71 32 12.71c11.04 0 20.412 8.846 20.908 19.51h-2.736c-.445 0-.828-.333-.87-.76zm3.603 2.534c-.078 1.53-.358 3.096-.85 4.75l-1.705-.456c.441-1.443.703-2.88.78-4.294h1.775zm-7.88 16.639a.889.889 0 01-1.085.627l-.857-.23 1.606-5.996a.887.887 0 10-1.713-.46l-1.607 5.998-.856-.23a.888.888 0 01-.627-1.086L43.1 37.263a.889.889 0 011.087-.627l3.425.918a.888.888 0 01.628 1.085l-3.214 11.994zm7.895-8.903l-2.296 8.567a.887.887 0 01-1.086.627l-2.57-.689c3.006-11.108 2.532-9.623 2.79-10.27 2.7.724 2.542.68 2.598.7.435.15.683.619.564 1.065zm0 0"/>
</svg>