<svg width="64" height="64" xmlns="http://www.w3.org/2000/svg">
  <path stroke-linecap="null" stroke-linejoin="null" stroke-dasharray="null" stroke-width="null" stroke="null" fill="#f9c649" d="M0 0h64v64H0z"/>
  <g stroke="null" fill="#fff">
    <path d="M40.66 34.04l-4.28-1.9a.84.84 0 01-.5-.77V30.2a6.24 6.24 0 002.37-4.89v-1.65c.47-.27.78-.77.78-1.34v-.16c0-3.44-2.8-6.24-6.24-6.24H31.2a6.25 6.25 0 00-6.24 6.24v1.46a1.54 1.54 0 00.78 1.36v.33c0 1.98.93 3.74 2.37 4.89v1.17c0 .33-.2.63-.5.77l-4.28 1.9a3.89 3.89 0 00-2.3 3.55v9.76a.74.74 0 001.46 0v-9.76l.02-.26 1.97 1.98c.3.3.48.71.48 1.15v6.89a.74.74 0 001.47 0v-6.9c0-.82-.32-1.6-.9-2.19l-2.36-2.35c.21-.22.47-.4.76-.53l4.2-1.87 3.12 3.12v10.72a.74.74 0 001.48 0V36.63l3.12-3.12 4.2 1.87c.3.13.55.31.76.53l-2.35 2.35c-.59.59-.9 1.37-.9 2.2v6.89a.74.74 0 001.46 0v-6.9c0-.43.17-.84.48-1.14l1.97-1.98.02.26v9.76a.74.74 0 001.47 0v-9.76c0-1.54-.9-2.93-2.3-3.55h0zM32 35.29l-2.74-2.74c.21-.35.33-.76.33-1.18v-.3a6.21 6.21 0 004.82 0v.3c0 .42.12.83.33 1.18L32 35.29zm0-5.2a4.78 4.78 0 01-4.77-4.78v-.33c.46-.18.9-.47 1.33-.87a.74.74 0 00-1-1.08 2.65 2.65 0 01-1.1.65.15.15 0 01-.02-.06v-1.46a4.78 4.78 0 014.77-4.77h1.58a4.78 4.78 0 014.77 4.77v.16c0 .03-.01.05-.03.05-4.41.87-6.62-.77-7.37-1.52a.74.74 0 10-1.04 1.05c2.28 2.28 5.62 2.32 7.65 2.08v1.33A4.78 4.78 0 0132 30.08h0zM20.14 30.03v-1.57c0-1.92-1-3.61-2.5-4.59a3.1 3.1 0 00-2.96-4.02 3.1 3.1 0 00-2.95 4.02 5.46 5.46 0 00-2.5 4.59v1.57c0 1.86.93 3.5 2.36 4.5v1.61c0 .32-.18.6-.47.75l-2.54 1.28a3.08 3.08 0 00-1.72 2.77v6.4a.74.74 0 001.48 0v-6.09l1.2 1.2c.3.31.47.72.47 1.15v3.75a.74.74 0 001.48 0V43.6c0-.82-.33-1.6-.91-2.19L8.9 39.74l-.03-.02c.1-.1.23-.17.36-.24l2.54-1.27c.13-.07.25-.14.37-.23l1.8 1.8v7.57a.74.74 0 001.47 0v-7.57l1.8-1.8c.11.09.24.16.37.23l.7.35a.73.73 0 00.99-.33.74.74 0 00-.33-.99l-.7-.35a.83.83 0 01-.47-.75v-1.62a5.46 5.46 0 002.36-4.49h0zm-5.46-8.7a1.63 1.63 0 011.6 1.9 5.44 5.44 0 00-3.2 0l-.02-.28c0-.9.73-1.63 1.62-1.63zm0 3.14a4 4 0 013.99 3.99v.27a4.62 4.62 0 01-4.97-1.5.74.74 0 00-1.11-.08c-.7.7-1.4 1.04-1.89 1.2a3.99 3.99 0 013.98-3.88zm0 13.97l-1.7-1.7c.05-.2.08-.4.08-.6v-.9a5.44 5.44 0 003.25 0v.9c0 .2.03.4.08.6l-1.7 1.7zm0-4.42a4 4 0 01-3.98-3.99v-.15a5.9 5.9 0 002.36-1.18c.33.3.79.68 1.37 1a5.86 5.86 0 004.23.55 4 4 0 01-3.98 3.77h0zM55.42 36.6l-4.12-2.07a.83.83 0 01-.46-.75v-1.04a4.66 4.66 0 001.57-3.5v-.83h.05c.41 0 .74-.33.74-.74V26.1c0-2.58-2.1-4.67-4.67-4.67h-1.58a4.68 4.68 0 00-4.67 4.67v1.57a.74.74 0 00.79.74v.84c0 1.38.6 2.63 1.57 3.49v1.04c0 .32-.17.6-.46.75a.74.74 0 10.66 1.32c.13-.07.25-.14.36-.23l1.8 1.8v9.93a.74.74 0 001.48 0v-9.93l1.8-1.8c.11.09.23.16.36.23l4 2-1.22 1.2c-.58.59-.9 1.36-.9 2.2v6.1a.74.74 0 001.47 0v-6.1c0-.44.17-.85.47-1.16l1.15-1.14c.03.13.05.27.05.41v7.99a.74.74 0 001.48 0v-7.99c0-1.18-.66-2.24-1.72-2.77h0zm-11.66-9.82v-.68h0a3.2 3.2 0 013.2-3.2h1.57a3.2 3.2 0 013.2 3.2v.81a11.26 11.26 0 01-5.15-1.43.73.73 0 00-.93.1c-.7.7-1.4 1.04-1.9 1.2h0zm3.98 9.3l-1.7-1.7c.05-.2.08-.4.08-.6v-.15a4.65 4.65 0 003.25 0v.15c0 .2.02.4.07.6l-1.7 1.7zm0-3.64a3.2 3.2 0 01-3.2-3.2v-1.18h0c.52-.2 1.12-.54 1.73-1.06.77.4 2.4 1.1 4.67 1.33v.92a3.2 3.2 0 01-3.2 3.2z"/>
  </g>
</svg>