<svg width="64" height="64" xmlns="http://www.w3.org/2000/svg">
  <path stroke-linecap="null" stroke-linejoin="null" stroke-dasharray="null" stroke-width="5" stroke="null" fill="#f9c649" d="M0 0h64v64H0z"/>
  <g fill="#fff" stroke="null">
    <path d="M56.84 34.3a19.72 19.72 0 00-15.29-17.24V14.6a3.32 3.32 0 00-.8-6.53h-7.01a3.32 3.32 0 00-.8 6.53v2.48a19.56 19.56 0 00-11.25 7.15H14.67a.97.97 0 000 1.95h5.7a19.53 19.53 0 00-1.73 3.74H8.04a.97.97 0 000 1.95h10.05a19.8 19.8 0 00-.49 3.75h-4.3a.97.97 0 000 1.94h4.33c.09 1.27.29 2.52.61 3.75h-6.3a.97.97 0 000 1.95h6.92a19.72 19.72 0 0029.12 9.52.97.97 0 10-1.06-1.64 17.8 17.8 0 01-22.2-2.33 17.75 17.75 0 010-25.08 17.75 17.75 0 0125.08 0 17.8 17.8 0 012.35 22.18.97.97 0 101.63 1.07 19.74 19.74 0 003.06-12.67h0zM32.38 11.37c0-.75.6-1.36 1.36-1.36h7.01a1.37 1.37 0 010 2.73h-7.01c-.75 0-1.36-.62-1.36-1.37zm2.5 5.36v-2.05h4.72v2.05a19.85 19.85 0 00-4.71 0z"/>
    <path d="M50.49 48.51a.98.98 0 00-.98.98.98.98 0 001.67.69.98.98 0 000-1.38.98.98 0 00-.7-.29zM37.26 21.15c-8.33 0-15.11 6.78-15.11 15.11s6.78 15.12 15.11 15.12 15.12-6.78 15.12-15.12-6.78-15.11-15.12-15.11zm0 28.28a13.17 13.17 0 1113.17-13.17c0 7.26-5.9 13.17-13.17 13.17z"/>
    <path d="M43.42 28.72l-4.82 4.83a3 3 0 00-2.68 0l-2.16-2.16a.97.97 0 00-1.37 1.37l2.16 2.16a3.03 3.03 0 105.43 0l4.68-4.68h0l.14-.14a.97.97 0 00-1.38-1.38h0zm-6.16 8.62a1.08 1.08 0 110-2.16 1.08 1.08 0 010 2.16zM47.68 35.3h-.9a.97.97 0 000 1.95h.9a.97.97 0 000-1.95zM27.75 35.28h-.9a.97.97 0 000 1.94h.9a.97.97 0 000-1.94zM37.27 27.72c.54 0 .98-.43.98-.97v-.9a.97.97 0 00-1.95 0v.9c0 .54.44.97.97.97zM37.25 44.8a.97.97 0 00-.97.98v.9a.97.97 0 001.94 0v-.9a.97.97 0 00-.97-.98zM8.03 41.3a.98.98 0 00-.97.97.98.98 0 00.97.98.98.98 0 00.98-.98.98.98 0 00-.98-.97z"/>
  </g>
</svg>