<?xml version="1.0" encoding="UTF-8"?>
<svg viewBox="0 0 194 25" xmlns="http://www.w3.org/2000/svg">
<path d="m54.5 0.63011c2.04 0 4.08-0.01 6.12-0.02 0 4.22 0 8.44-0.01 12.66 1.66-2.25 3.09-4.68 4.94-6.79 2.49-0.41 5.03-0.22 7.54-0.29-2.39 2.99-4.73 6-7.11 8.99 2.42 2.92 4.79 5.89 7.18 8.83-2.56 0.01-5.13-0.04-7.69-0.07-1.58-2.48-3.21-4.93-4.84-7.37-0.01 2.47-0.01 4.95-0.01 7.43h-6.12v-23.37z" fill="#5C524B"/>
<path d="m0.5 1.75h17.99c0.01 1.62 0.01 3.24 0.02 4.87-1.96-0.01-3.92 0.01-5.88 0.01-0.01 5.79-0.01 11.58 0 17.37h-6.26c0.01-5.79 0.01-11.58 0-17.37-1.96 0-3.91-0.02-5.87-0.01v-4.87z" fill="#5C524B"/>
<path d="m20.89 6.2602c2.06-0.01 4.11-0.01 6.17-0.01-0.05 0.73-0.15 2.2-0.2 2.93 1.72-1.48 3.66-2.66 5.77-3.5 0.08 2.27 0.13 4.54 0.17 6.8-1.73 0.32-3.57 0.35-5.14 1.19-1.14 3.31-0.54 6.9-0.66 10.33h-6.12c0-5.92-0.02-11.83 0.01-17.74z" fill="#5C524B"/>
<path d="m38.18 7.1402c3.96-2.06 9.54-1.33 12.28 2.4 1.41 1.96 1.34 4.51 1.73 6.79-4.23 0.07-8.47-0.03-12.7 0.19 0.8 0.91 1.55 1.87 2.45 2.69 3.22-1.04 6.55-1.6 9.94-1.35-1.78 4.97-7.58 7.9-12.54 5.7-6.71-2.38-7.2-13-1.16-16.42zm1.42 6.09c2.23 0.11 4.46 0.11 6.7 0.04-1.05-0.78-1.77-2.45-3.26-2.3-1.57-0.26-2.38 1.45-3.44 2.26z" fill="#5C524B"/>
<path d="m75 1.75h7.46c1.88 4.82 3.72 9.65 5.59 14.47 1.84-4.82 3.6-9.67 5.48-14.47h7.47v22.25h-6.25c0-4.01 0.03-8.01-0.02-12.01-1.48 3.95-2.82 7.96-4.12 11.98-1.73 0.02-3.45 0.03-5.18 0.04-1.42-4.14-2.88-8.26-4.27-12.41-0.05 4.13-0.04 8.27-0.04 12.4h-6.12v-22.25z" fill="#F8C654"/>
<path d="m109.41 6.6001c4.62-1.72 10.91 0.39 12.26 5.48 1.48 4.35-0.54 9.88-5.05 11.45-4.32 1.72-10.13 0.38-12.18-4.1-2.37-4.63-0.34-11.38 4.97-12.83zm1.01 5.25c-0.42 2.27-1.4 6.21 1.71 6.93 3.53 0.79 4.85-4.57 2.6-6.61-0.98-1.43-2.93-0.23-4.31-0.32z" fill="#F8C654"/>
<path d="m123.18 6.27c2.18-0.01 4.35-0.02 6.53-0.03 1.15 3.97 2.24 7.96 3.44 11.92 1.05-3.99 2.18-7.95 3.31-11.92 2.19 0.01 4.39 0.01 6.58 0.01-2 5.93-4.04 11.85-6.14 17.75h-7.66c-1.99-5.92-4.16-11.78-6.06-17.73z" fill="#F8C654"/>
<path d="m146.59 8.4799c3.81-3.53 10.92-3.39 13.94 1.1 1.48 1.94 1.5 4.46 1.76 6.77-4.2 0.06-8.41-0.1-12.6 0.2 1.12 2.89 3.88 3.3 6.03 1.35 2.08-0.03 4.17-0.01 6.26 0.01-1.84 5.88-9.54 8.27-14.43 4.62-4.37-3.17-4.53-10.23-0.96-14.05zm3.22 4.79c2.17 0.09 4.35 0.1 6.52 0.03-1.03-0.83-1.72-2.78-3.33-2.3-1.51-0.15-2.18 1.47-3.19 2.27z" fill="#F8C654"/>
<path d="m164.64 6.26c2.1-0.01 4.2-0.01 6.3-0.01-0.05 0.87-0.11 1.75-0.16 2.62 1.73-1.3 3.63-2.35 5.64-3.17 0.06 2.28 0.08 4.57 0.12 6.85-1.82 0.36-4.2-0.12-5.37 1.68-0.62 3.21-0.2 6.52-0.29 9.77h-6.25c0-5.91-0.02-11.83 0.01-17.74z" fill="#F8C654"/>
<path d="m178.6 12.97c-1.1-4.85 4.35-7.71 8.48-6.87 3.56-0.06 5.87 3.01 6.91 6.07-1.77 0.05-3.54 0.07-5.31 0.06-1.35-1.68-3.31-1.9-5.28-1.35 2 2.51 5.43 2.3 8.07 3.72 2.7 1.5 3.03 5.7 0.74 7.71-4.66 3.77-13.19 2.02-14.64-4.26 1.91-0.03 3.83-0.05 5.74-0.05 0.89 0.76 1.82 1.46 2.8 2.11 0.88-0.52 1.72-1.12 2.52-1.78-3.29-1.75-8.61-1.2-10.03-5.36z" fill="#F8C654"/>
</svg>
