<svg width="12" height="12" viewBox="0 0 12 12" fill="none" xmlns="http://www.w3.org/2000/svg">
<path d="M11.9687 4.60323C11.8901 4.36024 11.6746 4.18766 11.4196 4.16468L7.95611 3.85019L6.58654 0.644572C6.48556 0.409641 6.25557 0.257568 6.00004 0.257568C5.74451 0.257568 5.51452 0.409641 5.41354 0.645121L4.04396 3.85019L0.579886 4.16468C0.325362 4.18821 0.110391 4.36024 0.031379 4.60323C-0.0476331 4.84622 0.0253364 5.11273 0.217877 5.28074L2.83589 7.57676L2.0639 10.9774C2.00741 11.2274 2.10446 11.4859 2.31192 11.6359C2.42344 11.7164 2.5539 11.7574 2.68547 11.7574C2.79891 11.7574 2.91143 11.7269 3.01241 11.6664L6.00004 9.88083L8.98657 11.6664C9.20511 11.7979 9.4806 11.7859 9.6876 11.6359C9.89516 11.4854 9.99212 11.2269 9.93563 10.9774L9.16363 7.57676L11.7817 5.2812C11.9742 5.11273 12.0477 4.84668 11.9687 4.60323Z" fill="#FFC107"/>
</svg>
