<svg xmlns="http://www.w3.org/2000/svg" xmlns:xlink="http://www.w3.org/1999/xlink" width="2500" height="1220" viewBox="0 0 300 146.4">
  <g transform="matrix(4.92607 0 0 -4.92607 -1703.9 1497.5)">
    <defs>
      <path id="a" d="M226.3 216h300v146.3h-300z"/>
    </defs>
    <clipPath id="b">
      <use xlink:href="#a" overflow="visible"/>
    </clipPath>
    <g clip-path="url(#b)">
      <path d="M405.7 287.4c-.4.3-.4.3-2.8 1.1 2 .5 2.1.5 2.5.8.8.5 1.2 1.4 1.2 2.4v.1a9.2 9.2 0 01-3.6 5.3c-1 .4-2 .4-2.7-.2-.4-.2-.5-.2-2-2.3l-.5 7.2v.1c-.3 1-1 1.7-2 2-1.7.4-6-.9-7.2-2-.7-.8-1-1.8-.7-2.7V299l3-4.7 1-1.5c-2.3 1-2.4 1-2.9 1-.9 0-1.7-.5-2.3-1.3-.3-.5-.4-1-.6-1.7-.7 1-1.8 1.7-3.4 2-1.2.3-2.3.2-3.4-.3-1 .7-2.3.7-3.4.1a2.8 2.8 0 01-.7-.7v1.4l-.1.8v.1a3 3 0 01-1.8 2c-1 .4-2 .3-3-.3-1-.5-1.5-1.5-1.5-2.8v-2.8a5.4 5.4 0 01-1.3 1.4 6.6 6.6 0 01-5.3 1 5.7 5.7 0 01-3-1.5v.1a3 3 0 01-2 1.5c-1.4.4-3.2-.1-4-2.7l-.3-1-1.2 2.3a3 3 0 01-3.7 1.2c-1.3-.5-2-1.7-2-3 0-.5 0-1 .2-1.4v-.1l3.5-7.2a3 3 0 01-2.3-2.5 3 3 0 011-2.6c1-.8 2.4-1.1 4.1-.8 2 .4 3 1.5 3.8 4l1.1 3.6c.4-1.6 1-2.6 1.7-3.2 1-1 2.7-2 5.5-1.6 2 .3 3.5 1.3 4.3 2.4v-.3a3 3 0 011.7-1.9 3.2 3.2 0 012.7 0c.5.3.9.6 1.2 1v-1.2c0-1.9 1-2.7 1.7-3a3.3 3.3 0 012.8 0 3 3 0 011.7 1.8v.1l.1.8v.4a6 6 0 014.6 1.4h.8a3 3 0 012.8 0h2.2a9 9 0 014.8-1.2c1 .2 1.8.8 2.1 1.7.2.4.2.5.2 2.8l1.7-2.4c.8-.5 1.8-.7 2.7-.3a9 9 0 014 5v.5c0 .8-.3 1.6-1 2zm-23 5.4zm20-13" fill="#fff"/>
      <path d="M405.7 287.4c-.4.3-.4.3-2.8 1.1 2 .5 2.1.5 2.5.8.8.5 1.2 1.4 1.2 2.4v.1a9.2 9.2 0 01-3.6 5.3c-1 .4-2 .4-2.7-.2-.4-.2-.5-.2-2-2.3l-.5 7.2h0v.1c-.3 1-1 1.7-2 2-1.7.4-6-.9-7.2-2-.7-.8-1-1.8-.7-2.7V299l3-4.7 1-1.5c-2.3 1-2.4 1-2.9 1-.9 0-1.7-.5-2.3-1.3h0c-.3-.5-.4-1-.6-1.7-.7 1-1.8 1.7-3.4 2-1.2.3-2.3.2-3.4-.3-1 .7-2.3.7-3.4.1a2.8 2.8 0 01-.7-.7v1.4l-.1.8v.1a3 3 0 01-1.8 2h0c-1 .4-2 .3-3-.3-1-.5-1.5-1.5-1.5-2.8v-2.8a5.4 5.4 0 01-1.3 1.4 6.6 6.6 0 01-5.3 1 5.7 5.7 0 01-3-1.5v.1a3 3 0 01-2 1.5c-1.4.4-3.2-.1-4-2.7l-.3-1-1.2 2.3a3 3 0 01-3.7 1.2c-1.3-.5-2-1.7-2-3 0-.5 0-1 .2-1.4v-.1l3.5-7.2a3 3 0 01-2.3-2.5 3 3 0 011-2.6c1-.8 2.4-1.1 4.1-.8 2 .4 3 1.5 3.8 4l1.1 3.6c.4-1.6 1-2.6 1.7-3.2 1-1 2.7-2 5.5-1.6 2 .3 3.5 1.3 4.3 2.4v-.3a3 3 0 011.7-1.9 3.2 3.2 0 012.7 0c.5.3.9.6 1.2 1v-1.2c0-1.9 1-2.7 1.7-3a3.3 3.3 0 012.8 0 3 3 0 011.7 1.8v.1l.1.8v.4a6 6 0 014.6 1.4h.8a3 3 0 012.8 0h2.2a9 9 0 014.8-1.2c1 .2 1.8.8 2.1 1.7h0c.2.4.2.5.2 2.8l1.7-2.4c.8-.5 1.8-.7 2.7-.3a9 9 0 014 5v.5c0 .8-.3 1.6-1 2zM382.6 292.8h0s0 0 0 0h0zm20.1-13h0s0 0 0 0h0z" fill="none" stroke="#bdbcbc" stroke-width=".1" stroke-linecap="round" stroke-linejoin="round"/>
    </g>
  </g>
  <path d="M207.6 66a39.1 39.1 0 00-2 17.8c.3 2 .6 3.6 1.2 4.6a3.8 3.8 0 003.2 2.2c.9 0 1.4-.1 17.8-5.4l7.4-2.3c1.8-.5 3-2.2 3.1-4.3.1-2.2-1-4.1-2.9-4.8l-5.1-2.1A122.4 122.4 0 00211 64c-1.4 0-2.6.6-3.4 2m39.4 54.1c.3-.8.3-1.4.4-18.6v-7.7c.1-1.9-1-3.6-3-4.3-2-.8-4.3-.3-5.5 1.2l-3.6 4.3a123.2 123.2 0 00-13.2 16 3.4 3.4 0 00-.2 1.6c.1.7.4 1.5 1 2.2a38.4 38.4 0 0021 7.7c1.5-.3 2.6-1.1 3.1-2.4m27.8-6a38 38 0 0013.8-17.5c.3-1.6-.2-2.9-1.3-3.8-.7-.5-1.2-.7-17.6-6l-7.3-2.5c-1.7-.7-3.7 0-5 1.6-1.4 1.7-1.6 4-.5 5.6l2.9 4.7c9.7 15.8 10.4 17 11.1 17.5 1.1.8 2.5 1 4 .4m-8.5-40.7c18.6-4.5 19.3-4.7 20-5.2 1.2-.7 1.7-2 1.6-3.6v-.1a38.6 38.6 0 00-12.4-18.4c-1.4-.7-2.8-.6-4 .1-.7.5-1.2 1.2-11.2 14.8l-4.5 6.2c-1.2 1.5-1.2 3.6 0 5.3 1.1 1.9 3.2 2.8 5 2.2v.2l5.5-1.5m-18.7-15.3c-.3-7.4-2.6-40.3-2.8-41.8a4 4 0 00-3-2.7 52 52 0 00-26.3 7.4 4 4 0 00-1.2 3.7l23 36.5c3.4 5.4 6.1 4.6 7 4.3.9-.3 3.6-1.1 3.3-7.4" fill="#e9e9e9"/>
  <path d="M209 62.3a39.1 39.1 0 00-1.8 17.8c.2 2 .5 3.6 1 4.5a3.8 3.8 0 003.3 2.2c.9 0 1.4 0 17.8-5.3l7.3-2.4c1.9-.4 3-2.1 3.2-4.2.1-2.2-1-4.2-2.9-4.9l-5.1-2a124.3 124.3 0 00-19.3-7.6c-1.4 0-2.6.6-3.4 2m39.4 54c.3-.8.3-1.3.4-18.5v-7.7c.1-1.9-1-3.6-3-4.4-2.1-.7-4.3-.3-5.5 1.3l-3.6 4.2a125.6 125.6 0 00-13.2 16 3.5 3.5 0 00-.2 1.6c0 .8.4 1.6 1 2.3a38.5 38.5 0 0021 7.7c1.5-.3 2.6-1.1 3-2.4m28-6A38 38 0 00290 92.9c.2-1.5-.2-2.8-1.3-3.7-.7-.5-1.2-.7-17.6-6l-7.3-2.5c-1.7-.7-3.7 0-5 1.6a4.7 4.7 0 00-.5 5.6l2.9 4.7c9.7 15.8 10.4 17 11.1 17.5 1.1.8 2.5 1 4 .4m-8.5-40.7c18.6-4.5 19.3-4.7 20-5.2 1.2-.8 1.7-2 1.6-3.6V61a38.6 38.6 0 00-12.4-18.4 3.9 3.9 0 00-4 .1c-.7.5-1.2 1.2-11.2 14.8l-4.5 6.2c-1.2 1.5-1.2 3.5 0 5.3 1.1 1.8 3.2 2.7 5 2.2v.2c.8-.4 2.5-.8 5.5-1.5m-18.7-15.4c-.3-7.3-2.6-40.2-2.8-41.7a4 4 0 00-3-2.8c-4.8-1.1-23 4-26.3 7.4-1.1 1.1-1.5 2.5-1.2 3.8l23 36.5c3.4 5.4 6.1 4.5 7 4.2.9-.2 3.6-1 3.3-7.4" fill="#bf2519"/>
  <path d="M18.6 132.3c2.4 2.2 6.8 2.8 12.2 1.7 5-1 8.2-3.2 11.2-12.8l15-47.3c.8-2.5.8-4.7-.1-6.3-.7-1.3-2-2.2-3.6-2.6-2.7-.8-6-.7-8.2 6.5l-7.9 26.8-16-30.4c-1-2-4-3.4-7-2.2-4 1.5-5.3 5-3.8 9.6a91149.3 91149.3 0 0020.2 41.5l.1 1.2c0 1.5-.5 2.8-1.4 3.6-1 .9-2.2 1.3-3.6 1.3l-3.3-.1c-3.2.4-5.1 2.2-5.4 5-.3 1.8.3 3.3 1.6 4.5m77-44.8H74.8c-.5-.4-.8-1-.4-3.2.3-1 .6-2 1.4-3.4l.8-1.3c1.6-2 3.6-3.2 6-3.7 7.3-1.8 12.5 2 13.3 8.3.4 2.8.1 3.3-.1 3.3zm13-3.6a21.2 21.2 0 00-7.7-15.4c-4.6-3.5-11.1-4.7-18.8-3.3-9.7 1.7-15.5 8.6-16.8 20-1.7 13.7.6 24 6.5 29.8 4.4 4.4 11 6.1 19 5 11.5-1.6 16.6-7.8 16.6-11.8 0-3-1.8-5.2-4.3-5.6-1.5-.3-2.8 0-5.6 2.5-4 3.5-8.6 4.9-12.7 3.9-3-.8-5.5-3-6.6-6l-.5-1.7c-.3-1.7-.5-3.5.6-4.2l.3-.2h25c2.4 0 3.6-.3 4.2-1 1.4-1.5 1.3-6 .7-12m22.8-36.1c-2-.8-4.2-.6-6.2.5-2 1.2-2.7 2.9-2.7 6V114l.4 2.2a5.5 5.5 0 003 3.5c1.7.8 3.7.7 5.4 0 2.2-1 3.5-3.2 3.5-6V54l-.4-2.9a5 5 0 00-3-3.2m47.3 60.7c-8.3 0-9.6-7.3-9.8-12.9l-.1-3.2v-2.5c.6-9.6 2.6-13.4 7.6-14.5 3.4-.8 6-.4 8 1.2 3 2.4 4.2 7.4 4 15.7 0 9.8-1.7 16.2-9.7 16.2zm.6-43.9a18.4 18.4 0 00-14.8 3l-.7.5-.4.2-1.3.5-.3-1.4-.3-.5-.2-.3v-.1l-.3-.5c-1.3-2-5-3-8.1-1.1-1.6.9-2.5 2.1-2.5 5.9v58.7c0 3.2 1 5.2 3.2 6.3 1.9 1 4 1 5.8.2a5.3 5.3 0 003-3.3l.4-2.5V117.7l.6-2 1.9 1.3.6.5.6.4.6.3.6.3c5 2.3 11.5 2 16.8-.7 6.7-3.5 10-9.6 10.8-20 1.6-20.8-3.2-30.7-16-33.2m25.8 48.5h.7c.5 0 1 0 1-.6s-.4-.6-.9-.6h-.8v1.2zm-.6-1.7h1.5c1 0 1.4.3 1.4 1.1 0 .7-.5 1-1 1l1.1 1.9h-.6l-1.1-1.8h-.7v1.8h-.6v-4zm1.3 4.9a3 3 0 003-3 3 3 0 00-3-3 3 3 0 00-3 3 2.9 2.9 0 003 3zm0-6.4a3.4 3.4 0 110 6.9 3.5 3.5 0 110-7" fill="#231f20"/>
</svg>